<?xml version="1.0" encoding="UTF-8"?>
<svg version="1.1" xmlns="http://www.w3.org/2000/svg" width="500" height="500">
<path d="M0 0 C165 0 330 0 500 0 C500 165 500 330 500 500 C335 500 170 500 0 500 C0 335 0 170 0 0 Z " fill="#454545" transform="translate(0,0)"/>
<path d="M0 0 C165 0 330 0 500 0 C500 165 500 330 500 500 C335 500 170 500 0 500 C0 335 0 170 0 0 Z M54 66 C54 191.4 54 316.8 54 446 C183.36 446 312.72 446 446 446 C446 320.6 446 195.2 446 66 C316.64 66 187.28 66 54 66 Z " fill="#000000" transform="translate(0,0)"/>
<path d="M0 0 C0 12.54 0 25.08 0 38 C15.51 38 31.02 38 47 38 C47 48.89 47 59.78 47 71 C31.49 71 15.98 71 0 71 C0.06183512 85.33027123 0.06183512 85.33027123 0.16015625 99.66015625 C0.20838183 105.51058181 0.25246754 111.36082096 0.27099609 117.21142578 C0.28621574 121.93195446 0.32075485 126.65199326 0.36830902 131.37230301 C0.38306828 133.16703644 0.39103786 134.96183984 0.39188385 136.75663376 C0.2897716 149.38359977 0.2897716 149.38359977 4.14642334 161.28213501 C5 163 5 163 5 165 C13.8438878 169.5857196 21.86988607 170.42477264 31.5625 167.625 C34.50312907 166.66893341 36.38081026 165.74612649 39 164 C40.32 164 41.64 164 43 164 C44.45632209 167.90941574 45.89833054 171.82372646 47.32739258 175.74316406 C47.81536517 177.07532437 48.30719783 178.40607739 48.80297852 179.73535156 C49.51561539 181.64810611 50.21414334 183.56551883 50.91015625 185.484375 C51.33433838 186.63647461 51.75852051 187.78857422 52.19555664 188.97558594 C52.98126556 191.92956534 53.19424233 193.23464049 52 196 C39.99233228 206.78495482 21.53716388 207.9747935 6.23974609 207.19970703 C-6.80907732 206.03620828 -20.0960174 200.79252972 -29 191 C-37.5290239 179.9593617 -41.17231208 167.75944787 -41.11352539 153.98706055 C-41.11367142 153.08900192 -41.11381744 152.1909433 -41.1139679 151.26567078 C-41.11327287 148.30599528 -41.10549965 145.34638321 -41.09765625 142.38671875 C-41.09579061 140.33120254 -41.0943674 138.27568588 -41.09336853 136.22016907 C-41.08955482 130.81642423 -41.0797343 125.41270637 -41.06866455 120.00897217 C-41.0584258 114.49231328 -41.05386563 108.97565003 -41.04882812 103.45898438 C-41.03811101 92.63930917 -41.02052348 81.81966105 -41 71 C-49.25 71 -57.5 71 -66 71 C-66 60.11 -66 49.22 -66 38 C-57.75 38 -49.5 38 -41 38 C-41.01160156 35.70160156 -41.02320313 33.40320313 -41.03515625 31.03515625 C-41.04294709 28.81779112 -41.04902369 26.60042749 -41.05493164 24.38305664 C-41.0599714 22.83780234 -41.0668032 21.29255284 -41.07543945 19.74731445 C-41.08752076 17.53074971 -41.09323173 15.31424782 -41.09765625 13.09765625 C-41.10281754 12.4028566 -41.10797882 11.70805695 -41.11329651 10.99220276 C-41.11349277 9.3277067 -41.06189129 7.66334501 -41 6 C-39.20295911 4.20295911 -36.43625335 4.44060555 -34 4.125 C-29.84754761 3.56511878 -25.72464669 2.97041394 -21.60546875 2.203125 C-20.87005859 2.06632324 -20.13464844 1.92952148 -19.37695312 1.78857422 C-17.95902833 1.52073695 -16.5422521 1.24671493 -15.12695312 0.96533203 C-9.84384211 -0.02620837 -5.5847972 0 0 0 Z " fill="#FEFEFE" transform="translate(381,165)"/>
<path d="M0 0 C-1.18449579 8.26029956 -2.58537261 16.47515251 -4.0625 24.6875 C-4.2368457 25.66799316 -4.41119141 26.64848633 -4.59082031 27.65869141 C-4.75807617 28.57956543 -4.92533203 29.50043945 -5.09765625 30.44921875 C-5.24726807 31.27768311 -5.39687988 32.10614746 -5.55102539 32.9597168 C-6 35 -6 35 -7 37 C-14.75 36.125 -14.75 36.125 -17 35 C-26.31766939 34.09796898 -37.09221475 33.36591199 -45 39 C-46.05380859 39.72896484 -46.05380859 39.72896484 -47.12890625 40.47265625 C-56.86400508 48.05635202 -59.56929959 59.44187097 -61.52330017 71.13026428 C-62.05005224 75.40631214 -62.17427869 79.5702117 -62.20532227 83.87280273 C-62.21522186 84.73213913 -62.22512146 85.59147552 -62.23532104 86.47685242 C-62.26671649 89.2957389 -62.29160596 92.11464219 -62.31640625 94.93359375 C-62.33699477 96.8965751 -62.35799173 98.85955221 -62.37937927 100.82252502 C-62.43440395 105.97301787 -62.48389919 111.12354942 -62.53222656 116.27410889 C-62.59144927 122.46252396 -62.65756874 128.65086875 -62.72252655 134.83922577 C-62.82028919 144.22610736 -62.90931401 153.61303536 -63 163 C-76.53 163 -90.06 163 -104 163 C-104 108.22 -104 53.44 -104 -3 C-90.8 -3 -77.6 -3 -64 -3 C-64 5.25 -64 13.5 -64 22 C-62.68 22 -61.36 22 -60 22 C-59.79375 21.175 -59.5875 20.35 -59.375 19.5 C-55.76993503 10.32347098 -48.23225145 2.74408788 -39.3125 -1.375 C-27.52099885 -6.33303522 -11.3672691 -5.68363455 0 0 Z " fill="#FDFDFD" transform="translate(308,206)"/>
<path d="M0 0 C30.36 0 60.72 0 92 0 C92 11.88 92 23.76 92 36 C61.64 36 31.28 36 0 36 C0 24.12 0 12.24 0 0 Z " fill="#FEFEFE" transform="translate(75,244)"/>
</svg>
